<svg xmlns="http://www.w3.org/2000/svg" viewBox="0 0 117 200.42"><defs><style>.cls-1{fill:#fff;}</style></defs><g id="Camada_2" data-name="Camada 2"><g id="Camada_3" data-name="Camada 3"><path class="cls-1" d="M110.54,73.05c7.77-14.89,8.87-41.49,1.45-57S90.35,6.25,90.35,6.25A61.19,61.19,0,0,0,62.68.05C-3.55-2.21-4.5,68.66,3.36,81s12.11,37.11,11.41,40.43-6.53,14.94-3.26,27.66a49.59,49.59,0,0,0,3.13,9.16,22.9,22.9,0,0,0,4.3,6.13,43.59,43.59,0,0,1,5.71,7.12c8.82,14,24.8,28.3,34.51,28.89,5.77.34,20.74-10.41,29.45-24.14.74-1.14,1.41-2.3,2-3.48a1.62,1.62,0,0,0,.1-.18c1-1.79,2-3.6,3.18-5.4.4-.65.81-1.29,1.23-1.94,3.73-5.84,7.55-11.56,8.38-16.16,3.34-18.38-3.69-37.17-3.69-37.17s-1.84,10.84-4.42,12.4S70.66,108.85,64.8,109.09s-6.8,4.8-9.68,4.77-3.49-4.3-8.48-3.81S18.8,124.34,18.8,124.34,6,70.32,13.57,66c5.51-3.13,7-15.24,7.46-21.65.89,3.63,5.59,7,25.14-2.83,30.2-15.22,43-6.42,44.48-2.52s-2.86,7.51,4.78,18c7.33,10,4.68,48.1,4.46,51.28C100.22,106.17,103.21,87.08,110.54,73.05ZM55.25,117.17S57,125.5,80.41,128.36c0,0,.38,17.75-8.79,19.77a7.54,7.54,0,0,1-1.74.2c-6.66,0-8.53-5.59-11.39-5.59s-3.85-.12-5.57,1.49-3.66,4.87-8.42,4.88c-2.59,0-5.79-1.81-8.5-5.24a28.32,28.32,0,0,1-5.53-14.33S54.17,124,55.25,117.17Z"/></g></g></svg>