<svg xmlns="http://www.w3.org/2000/svg" viewBox="0 0 117 72"><defs><style>.cls-1{fill:#1d1d1b;}</style></defs><g id="Camada_2" data-name="Camada 2"><g id="Camada_2-2" data-name="Camada 2"><path class="cls-1" d="M117,27V45a9,9,0,0,1-6.75,8.72A9.24,9.24,0,0,1,108,54a8.91,8.91,0,0,1-4.5-1.21V63a9,9,0,0,1-18,0V45h-54V63a9,9,0,0,1-18,0V52.79A8.91,8.91,0,0,1,9,54a9.24,9.24,0,0,1-2.25-.28A9,9,0,0,1,0,45V27a9,9,0,0,1,6.75-8.72A9.24,9.24,0,0,1,9,18a8.91,8.91,0,0,1,4.5,1.21V9a9,9,0,0,1,18,0V27h54V9a9,9,0,0,1,18,0V19.21A8.91,8.91,0,0,1,108,18a9.24,9.24,0,0,1,2.25.28A9,9,0,0,1,117,27Z"/></g></g></svg>