<svg xmlns="http://www.w3.org/2000/svg" viewBox="0 0 117 43.88"><defs><style>.cls-1{fill:#fff;}</style></defs><g id="Camada_2" data-name="Camada 2"><g id="Camada_3" data-name="Camada 3"><path class="cls-1" d="M117,21.94a22,22,0,0,1-14.62,20.68,21.91,21.91,0,0,1-23.66-6.06,21.37,21.37,0,0,1-4.34-7.31H42.62a21.53,21.53,0,0,1-4.34,7.31,21.9,21.9,0,0,1-23.66,6.06A22,22,0,0,1,0,21.94,21.93,21.93,0,0,1,38.28,7.31a21.72,21.72,0,0,1,4.34,7.31H74.38a21.56,21.56,0,0,1,4.34-7.31A21.94,21.94,0,0,1,117,21.94Z"/></g></g></svg>